HIERARCHY
ROOT Hips
{
  OFFSET -102.467 93.6631 130.069
  CHANNELS 6 Xposition Yposition Zposition Zrotation Xrotation Yrotation
  JOINT LeftUpLeg
  {
    OFFSET 8.64259 1.95398 -2.38835
    CHANNELS 3 Zrotation Xrotation Yrotation
    JOINT LeftLeg
    {
      OFFSET 43.7702 0 0
      CHANNELS 3 Zrotation Xrotation Yrotation
      JOINT LeftFoot
      {
        OFFSET 40.6238 0 0
        CHANNELS 3 Zrotation Xrotation Yrotation
        JOINT LeftToeBase
        {
          OFFSET 12.7242 0 0
          CHANNELS 3 Zrotation Xrotation Yrotation
          End Site
          {
            OFFSET 0 0 0
          }
        }
      }
    }
  }
  JOINT RightUpLeg
  {
    OFFSET -8.2249 1.95398 -2.59336
    CHANNELS 3 Zrotation Xrotation Yrotation
    JOINT RightLeg
    {
      OFFSET 43.5653 0 0
      CHANNELS 3 Zrotation Xrotation Yrotation
      JOINT RightFoot
      {
        OFFSET 40.6238 0 0
        CHANNELS 3 Zrotation Xrotation Yrotation
        JOINT RightToeBase
        {
          OFFSET 12.7242 0 0
          CHANNELS 3 Zrotation Xrotation Yrotation
          End Site
          {
            OFFSET 0 0 0
          }
        }
      }
    }
  }
  JOINT Spine
  {
    OFFSET 0.165834 0.87714 6.61349
    CHANNELS 3 Zrotation Xrotation Yrotation
    JOINT Spine1
    {
      OFFSET 7.38963 1.71661e-005 0
      CHANNELS 3 Zrotation Xrotation Yrotation
      JOINT Spine2
      {
        OFFSET 11.9445 1.14441e-005 0
        CHANNELS 3 Zrotation Xrotation Yrotation
        JOINT Spine3
        {
          OFFSET 14.7254 4.19617e-005 0
          CHANNELS 3 Zrotation Xrotation Yrotation
          JOINT Spine4
          {
            OFFSET 10.9679 0 0
            CHANNELS 3 Zrotation Xrotation Yrotation
            JOINT RightShoulder
            {
              OFFSET 2.46616 -1.6653 3.69651
              CHANNELS 3 Zrotation Xrotation Yrotation
              JOINT RightArm
              {
                OFFSET 13.0012 0 0
                CHANNELS 3 Zrotation Xrotation Yrotation
                JOINT RightForeArm
                {
                  OFFSET 28.7848 1.52588e-005 0
                  CHANNELS 3 Zrotation Xrotation Yrotation
                  JOINT RightHand
                  {
                    OFFSET 26.5688 1.52588e-005 0
                    CHANNELS 3 Zrotation Xrotation Yrotation
                    End Site
                    {
                      OFFSET 0 0 0
                    }
                  }
                }
              }
            }
            JOINT LeftShoulder
            {
              OFFSET 2.38034 -1.29275 -3.7523
              CHANNELS 3 Zrotation Xrotation Yrotation
              JOINT LeftArm
              {
                OFFSET 16.3182 6.10351e-005 0
                CHANNELS 3 Zrotation Xrotation Yrotation
                JOINT LeftForeArm
                {
                  OFFSET 27.0901 0 0
                  CHANNELS 3 Zrotation Xrotation Yrotation
                  JOINT LeftHand
                  {
                    OFFSET 24.5451 1.52588e-005 0
                    CHANNELS 3 Zrotation Xrotation Yrotation
                    End Site
                    {
                      OFFSET 0 0 0
                    }
                  }
                }
              }
            }
            JOINT Neck
            {
              OFFSET 5.0226 -0.0266342 0
              CHANNELS 3 Zrotation Xrotation Yrotation
              JOINT Head
              {
                OFFSET 6.69363 2.86102e-005 0
                CHANNELS 3 Zrotation Xrotation Yrotation
                End Site
                {
                  OFFSET 0 0 0
                }
              }
            }
          }
        }
      }
    }
  }
}
MOTION
Frames:	17
Frame Time:	0.0416667
238.706 101.246 -258.484 -91.489 -58.8729 -90.0735 -174.869 -0.952892 90.9693 -8.03391 15.8864 2.74333 57.831 3.33609 11.3878 40.5992 -0.936459 2.59666 176.28 4.31792 91.0916 -17.8401 -12.4732 0.381388 57.1959 4.00828 0.233377 45.1954 -5.25237 -3.83976 0.428263 8.30259 -91.4738 10.2618 0.179875 -2.94239 -1.41252 0.050258 -2.94746 -23.9236 1.05554 -2.75257 -3.91095 1.05554 -2.75257 137.074 -34.7425 -19.9373 18.1063 -35.8809 -30.8704 -10.0339 -26.6718 -28.9667 -20.3115 -2.3819 8.41476 -35.9653 -74.2003 145.184 -11.5891 14.7006 -27.9412 8.70061 38.5595 -22.5339 -6.3582 0.0497142 -8.3985 69.3427 39.3115 19.3146 -70.8531 33.4646 -20.7661 
238.763 101.218 -258.508 -91.2755 -58.7665 -90.5342 -175.424 -0.912853 90.1649 -8.04858 15.1723 2.79169 57.8051 3.70711 12.3171 40.3998 -1.11318 1.42462 175.963 4.98559 90.3435 -18.8217 -12.56 0.39488 57.724 3.8985 0.257747 45.0203 -4.97182 -3.11973 0.39974 8.27387 -91.3887 10.3198 0.161163 -2.7722 -1.35407 0.0390539 -2.77661 -23.8678 0.986599 -2.59583 -3.85517 0.986621 -2.59582 136.841 -34.5412 -20.1468 16.059 -41.4601 -32.466 9.83655 7.4249 -25.5282 -41.4623 3.72469 -11.4574 -35.9788 -74.1245 145.202 -12.0528 14.0974 -28.1033 8.20555 37.5529 -22.2116 -7.47193 -0.0104863 -6.11613 69.7508 38.6259 18.7237 -73.217 33.091 -19.6453 
238.721 101.177 -258.513 -91.4881 -59.0643 -90.5865 -175.27 -1.05106 90.7085 -8.11562 15.7344 2.7622 57.9196 3.29559 10.8408 41.0002 -0.74796 3.90477 175.992 4.61582 90.5916 -18.3581 -13.8266 0.503304 57.5027 3.34523 -1.20882 45.3571 -5.53675 -4.37719 0.31483 8.23614 -91.3827 10.3936 -0.00612069 -2.74541 -1.28021 -0.126895 -2.74249 -23.7936 0.818978 -2.6205 -3.78097 0.818985 -2.62051 136.151 -34.2882 -21.0313 13.2393 -48.5333 -34.7677 64.2694 54.7052 -62.9739 -53.3719 16.9129 -40.4265 -37.1074 -73.9011 144.033 -12.6328 13.7789 -27.9195 8.90697 38.0731 -22.7457 -8.62706 0.0554036 -7.18048 70.5353 36.5624 16.9147 -78.3718 31.1826 -15.9232 
238.632 101.046 -258.426 -89.4592 -59.4491 -88.2093 -175.04 0.294439 91.0207 -8.464 16.2589 2.75906 58.1242 3.48573 11.169 40.6993 -0.835123 3.2404 176.716 4.48942 91.6664 -16.6112 -17.8985 0.563937 55.8808 1.90841 -5.78464 47.879 -7.59257 -8.19755 0.210817 8.04201 -91.4098 10.7786 -0.230453 -2.78224 -0.89529 -0.352647 -2.76943 -23.4073 0.616037 -2.72301 -3.39462 0.61605 -2.723 134.965 -33.7949 -22.5346 17.1397 -44.4433 -32.3006 24.0868 30.8438 -28.7471 -54.7609 9.19932 -25.0137 -39.2624 -73.28 141.862 -12.6235 15.3367 -27.5411 12.2975 41.8325 -26.2057 -6.98738 -0.153992 -2.27844 70.0118 33.7336 15.6941 -82.878 28.7037 -13.0539 
238.69 101.143 -258.455 -90.8106 -59.4256 -89.4937 -175.002 -0.486571 90.9517 -8.19587 16.49 2.76541 57.6966 3.41578 11.7007 41.1454 -0.983676 2.62311 176.754 4.401 91.4686 -17.6554 -11.8084 -0.0309712 57.3411 3.73369 -0.627798 45.7866 -5.26457 -3.35812 0.0893914 8.03222 -91.3642 10.7963 -0.451389 -2.67108 -0.877235 -0.568449 -2.64865 -23.3906 0.371953 -2.68328 -3.3779 0.371957 -2.68327 133.295 -33.2932 -24.8539 24.1207 -31.3685 -28.0045 -19.7424 -44.5968 -31.6226 -0.75784 -0.048821 12.3995 -41.4132 -72.8562 139.587 -13.0384 15.7994 -26.7087 11.5566 39.5364 -25.7935 -4.16827 -0.112873 -2.94423 68.1959 31.2112 15.7608 -85.5504 26.1668 -11.4434 
238.872 101.062 -258.562 -92.2667 -58.9735 -91.2538 -175.193 -1.22779 90.3993 -8.14768 15.7175 2.69951 57.8103 3.24983 10.9147 41.1084 -0.779694 3.76729 176.273 3.46652 90.8685 -17.2818 -18.4118 0.399269 56.7687 1.3775 -5.65745 46.7719 -7.34167 -8.52614 -0.0258712 8.01125 -91.239 10.8383 -0.623713 -2.40585 -0.834638 -0.72897 -2.3761 -23.3519 0.127929 -2.48204 -3.33924 0.127931 -2.48206 131.172 -32.5666 -27.8338 26.5008 -32.0095 -26.2541 -18.0951 -43.8824 -30.0063 -1.9061 -0.160132 11.9059 -44.384 -72.0505 136.484 -13.5752 15.4134 -25.6261 10.5702 38.0448 -24.6697 -3.22146 -0.0980274 -3.32941 65.0544 29.3766 15.7633 -84.3121 24.2589 -10.4818 
239.152 101.044 -258.704 -92.4407 -58.4612 -91.5301 -175.384 -1.28137 90.0917 -8.10773 15.2055 2.70509 57.6997 3.34578 11.3666 40.8715 -0.858832 3.19609 176.15 3.4466 90.6027 -17.0641 -20.1024 0.471107 56.4713 1.05635 -6.51456 46.8874 -7.68182 -9.36487 -0.135282 7.91124 -91.167 11.0379 -0.810314 -2.24457 -0.634607 -0.908282 -2.20676 -23.1544 -0.0984606 -2.38424 -3.1417 -0.0984684 -2.38425 128.853 -32.0464 -31.4083 27.8342 -36.4147 -24.6942 -6.77219 -28.4955 -22.1182 -15.9081 -1.24905 4.27996 -46.7142 -71.4966 133.98 -13.8939 14.8913 -24.3126 10.514 37.0192 -24.6152 -3.51677 -0.103712 -3.0336 59.1121 30.1411 18.2357 -75.3604 25.3402 -13.7512 
239.452 100.998 -258.858 -92.0958 -58.5512 -91.2176 -175.622 -0.723551 89.916 -8.49368 15.1224 2.77726 57.5843 3.17055 11.1392 40.9485 -0.752786 3.84637 176.632 3.59872 90.8032 -17.0341 -20.5764 0.0202732 56.1676 0.621375 -7.49779 47.4984 -8.14925 -10.2158 -0.314945 7.77467 -91.1126 11.3092 -1.14503 -2.10124 -0.362833 -1.23636 -2.04883 -22.8853 -0.46078 -2.34809 -2.87263 -0.460773 -2.34808 126.123 -31.4167 -35.7746 31.2469 -36.4948 -21.6069 -4.16863 -23.7759 -20.6804 -18.8669 -1.15236 1.88214 -49.3411 -70.6846 131.176 -14.79 13.8062 -22.9726 10.2332 35.778 -24.0052 -3.69538 -0.116687 -2.11508 50.4067 31.8127 22.4015 -60.4832 26.3466 -18.621 
239.667 101.304 -258.927 -92.3111 -58.4012 -91.4842 -175.544 -0.915009 89.7902 -8.14297 14.6852 2.64046 57.736 3.43785 11.3283 40.2496 -0.86039 2.85283 172.477 4.71556 87.958 -17.499 -13.1016 3.55137 58.068 4.27045 0.892293 41.5493 -2.17531 3.21597 -0.478228 7.67742 -91.051 11.5029 -1.44267 -1.94648 -0.168595 -1.52692 -1.88114 -22.6945 -0.791159 -2.28991 -2.68184 -0.791159 -2.28991 123.082 -30.5166 -40.7376 34.6801 -36.1937 -19.0548 -5.44479 -26.7471 -21.5099 -21.9839 -1.79272 4.2483 -51.9593 -70.0948 128.258 -15.7407 12.2547 -21.384 10.4756 35.0162 -23.5247 -3.41238 -0.106927 -2.56256 44.9449 30.9771 24.7122 -54.6305 25.3596 -20.3141 
239.709 101.152 -259.04 -92.5042 -58.4084 -91.5719 -175.384 -0.972439 89.9755 -8.0785 14.6523 2.55999 57.9153 3.29817 10.7455 39.9954 -0.79486 3.10062 176.134 3.99883 90.3264 -17.5454 -15.23 0.148112 57.8446 2.49396 -1.75471 44.852 -6.21013 -7.15311 -0.663188 7.58169 -91.0208 11.6928 -1.79795 -1.84642 0.0219274 -1.87746 -1.76552 -22.5076 -1.16008 -2.30125 -2.49493 -1.16006 -2.30125 119.288 -30.061 -47.6544 38.682 -34.0045 -15.4434 -5.76128 -25.3288 -20.6573 -16.4393 -1.02758 2.14648 -54.4429 -69.6511 125.415 -16.1117 11.0683 -19.6753 10.0797 33.5597 -23.0327 -4.03887 -0.103024 -3.53509 39.9393 29.7885 26.2977 -50.076 24.0791 -20.8321 
239.446 101.2 -258.996 -93.5502 -58.9945 -92.9014 -175.459 -1.57476 89.8627 -8.12786 15.4625 2.55898 57.7055 3.21269 10.9553 40.6475 -0.802686 3.40542 176.424 3.82037 90.2332 -18.5083 -10.4878 -0.646624 59.0079 3.91009 1.74038 43.0491 -4.80627 -4.32011 -0.93134 7.52265 -90.9121 11.812 -2.2809 -1.57605 0.142177 -2.34805 -1.47412 -22.3953 -1.70189 -2.18862 -2.38264 -1.70189 -2.18863 114.426 -29.8447 -57.0802 43.1587 -29.9323 -10.9637 -6.90831 -26.0499 -20.8221 -15.9691 -1.11532 2.99007 -57.0645 -69.1032 122.396 -16.6336 9.68592 -17.9712 10.0834 32.533 -22.5641 -4.14768 -0.110846 -3.16129 34.6519 27.7605 27.1294 -45.8423 22.2032 -20.4287 
239.073 101.131 -258.922 -93.6557 -58.7536 -93.0676 -175.324 -1.81742 89.8911 -8.10245 14.823 2.54572 58.121 3.41933 10.5876 40.2808 -0.8255 3.07981 176.248 3.3843 90.361 -18.2329 -12.7124 -0.361192 58.9877 2.34843 -1.33378 43.7778 -4.90901 -4.02818 -1.08311 7.43414 -90.827 11.9902 -2.54358 -1.37324 0.321169 -2.60156 -1.25991 -22.2219 -2.01332 -2.07427 -2.2092 -2.01334 -2.07428 109.222 -29.4915 -67.5283 47.0208 -24.7606 -7.80304 -6.6341 -26.0164 -19.4639 -16.9742 -1.35327 4.08925 -59.6497 -68.4989 119.389 -16.9995 8.14181 -16.3059 10.3762 32.0933 -22.2596 -4.18705 -0.11785 -2.89693 29.3443 25.4735 27.253 -41.3679 20.2013 -19.4452 
238.725 101.084 -258.777 -92.5624 -59.2605 -92.0986 -175.633 -1.27736 89.8791 -8.2935 15.1968 2.84536 57.9327 3.39568 10.6817 40.8459 -0.787431 3.59463 175.784 3.39382 90.3439 -17.5813 -15.0753 0.392994 58.7876 1.28147 -3.28389 44.0091 -5.74415 -6.47371 -1.29736 7.28406 -90.7742 12.2916 -2.94537 -1.21389 0.623521 -2.99594 -1.083 -21.9269 -2.4444 -2.04326 -1.91426 -2.4444 -2.04327 103.529 -31.0504 -79.38 48.1017 -18.3572 -5.32856 -6.92704 -25.7558 -17.7724 -14.2054 -1.1751 4.52184 -62.048 -67.5199 116.641 -18.0636 5.93253 -14.6861 9.68618 28.8648 -21.4642 -6.64397 -0.0407451 -5.70492 24.3145 23.0406 26.0095 -36.9654 18.0829 -16.8514 
238.168 101.128 -258.583 -91.9677 -58.6179 -91.2031 -175.119 -1.28805 90.5006 -8.30167 15.1348 2.74531 58.0883 3.72793 11.1938 41.2755 -0.874172 3.31491 175.665 4.0482 90.6056 -18.5836 -10.3057 0.483997 60.1528 2.83172 1.07076 40.8441 -3.22424 -0.873256 -1.35799 7.19791 -90.741 12.465 -3.05059 -1.12944 0.797275 -3.09733 -0.99399 -21.7557 -2.5701 -1.99443 -1.74309 -2.57011 -1.99444 98.8756 -32.345 -88.6784 48.1996 -14.704 -4.25589 -3.28587 -17.3227 -13.6905 -14.8451 -0.702861 0.162984 -64.1979 -66.527 114.143 -18.4944 5.04991 -13.1466 10.3222 28.4375 -22.0441 -7.00598 -0.0663698 -4.9915 20.4291 21.0565 24.1207 -33.7581 16.6233 -14.463 
237.336 100.803 -258.294 -91.3075 -58.2338 -90.5487 -174.777 -1.34303 90.9241 -8.36448 15.7707 2.64436 57.9624 3.82389 11.7932 42.9298 -0.737463 4.77195 176.539 3.59159 91.596 -18.3625 -16.18 0.210109 59.3961 -0.323386 -5.009 44.4596 -5.93774 -6.62874 -1.42406 7.12379 -90.6619 12.6163 -3.14442 -0.95481 0.948926 -3.18339 -0.815379 -21.6075 -2.71205 -1.85622 -1.59489 -2.71205 -1.85622 95.3787 -34.8035 -95.1284 46.3331 -11.7856 -3.92568 -1.91602 -14.9774 -11.6603 -19.476 -1.22137 2.11596 -66.088 -64.9717 112.005 -19.5579 4.4538 -12.3119 10.4669 28.0347 -21.866 -6.94133 -0.0985791 -4.1981 16.9929 19.1372 20.842 -30.255 15.24 -10.9768 
236.39 100.585 -257.89 -91.3065 -57.2244 -90.2742 -174.696 -1.8003 91.5482 -8.5105 15.8749 2.88551 57.322 4.59453 13.4029 45.6075 -0.664202 6.09693 177.038 4.39803 92.2325 -20.9629 -12.4225 -0.307655 61.2287 0.404441 -1.88556 43.8558 -4.63853 -3.12404 -1.37121 7.13945 -90.6152 12.5858 -3.01695 -0.877481 0.918184 -3.05267 -0.743737 -21.6369 -2.61373 -1.74411 -1.62427 -2.61373 -1.74412 93.8587 -37.4808 -97.4158 43.8607 -11.7378 -4.60438 -0.324481 -11.1348 -10.0344 -20.6383 -1.03022 0.618411 -67.716 -63.9221 110.063 -19.8965 4.00955 -11.9291 10.2692 27.3213 -21.5044 -6.94914 -0.0712621 -4.86143 14.8783 17.4396 16.9741 -28.2485 14.0298 -7.04866 
235.354 99.9568 -257.404 -91.1805 -56.4968 -90.3307 -175.983 0.968668 91.0648 -15.1103 12.609 2.56954 57.6763 6.79827 14.4041 51.4173 -0.617969 7.65892 175.807 5.80431 91.6422 -24.9799 -14.0908 0.895044 64.7027 -1.30024 -1.83599 40.4156 -4.05722 -4.49637 -1.29748 7.1608 -90.4513 12.548 -2.79259 -0.57746 0.879999 -2.81529 -0.453894 -21.6742 -2.48986 -1.3905 -1.66157 -2.48987 -1.3905 92.9996 -41.5461 -98.0664 40.7122 -12.2008 -4.91487 0.282119 -9.63225 -9.77843 -20.7392 -0.949628 0.104562 -69.8074 -60.7746 107.703 -22.101 3.75385 -11.3263 10.8906 26.9117 -21.974 -6.10742 -0.118609 -3.50845 13.8342 14.7785 10.1662 -28.1229 12.0817 -1.01971 
